<svg id="Layer_2" data-name="Layer 2" xmlns="http://www.w3.org/2000/svg" width="40" height="40" viewBox="0 0 40 40">
  <g id="invisible_box" data-name="invisible box">
    <rect id="사각형_8786" data-name="사각형 8786" width="40" height="40" fill="none"/>
  </g>
  <g id="Medical" transform="translate(2.003 2.965)">
    <g id="그룹_21911" data-name="그룹 21911">
      <path id="패스_33821" data-name="패스 33821" d="M37.509,18.782,21.145,3.4a1.732,1.732,0,0,0-2.291,0L2.491,18.782A1.768,1.768,0,0,0,2.41,21.13a1.731,1.731,0,0,0,2.373,0l.491-.4V34.571a2.335,2.335,0,0,0,.693,1.743A2.386,2.386,0,0,0,7.728,37H32.272a2.386,2.386,0,0,0,1.761-.686,2.335,2.335,0,0,0,.693-1.743V20.726l.491.4a1.645,1.645,0,0,0,1.145.486,1.81,1.81,0,0,0,1.227-.486,1.768,1.768,0,0,0-.082-2.348ZM31.454,33.762H8.546V17.649L20,6.88,31.454,17.649Z" transform="translate(-2.003 -2.965)" fill="#fff"/>
    </g>
  </g>
</svg>
