<svg xmlns="http://www.w3.org/2000/svg" width="40" height="40" viewBox="0 0 40 40">
  <g id="그룹_5357" data-name="그룹 5357" transform="translate(0 -0.16)">
    <path id="패스_11828" data-name="패스 11828" d="M26.8-22.7H26.53a13.364,13.364,0,0,0-4.218.51,11.973,11.973,0,0,0-3.8,1.909,10.669,10.669,0,0,0-2.356,2.419A9.676,9.676,0,0,0,14.75-14.8a8.628,8.628,0,0,0-.247,2.192,10.007,10.007,0,0,0,.285,2.192.309.309,0,0,0,.019.094.309.309,0,0,1,.019.094H13.268q-.874-.076-1.729-.227A10.17,10.17,0,0,1,9.849-10.9a.628.628,0,0,0-.152.019.745.745,0,0,0-.152.057q-.95.567-1.881,1.115T5.821-8.6a1.746,1.746,0,0,0-.228.094.187.187,0,0,1-.228-.057.259.259,0,0,1-.095-.227,1.37,1.37,0,0,0,.019-.227q.266-.832.513-1.7t.513-1.7a.343.343,0,0,0,.019-.189.287.287,0,0,0-.133-.151,13.16,13.16,0,0,1-2.413-2.325,9.237,9.237,0,0,1-1.577-2.929,9.8,9.8,0,0,1-.4-4.895,10.171,10.171,0,0,1,2.109-4.441,11.288,11.288,0,0,1,3.173-2.8,14.779,14.779,0,0,1,3.933-1.587,16.389,16.389,0,0,1,2.09-.321,12.887,12.887,0,0,1,2.09-.019,14.66,14.66,0,0,1,5.016,1.228,12.26,12.26,0,0,1,4.142,3.08A11.5,11.5,0,0,1,25.9-25.476a8.886,8.886,0,0,1,.855,2.627.033.033,0,0,1,.038.038Zm-9.043-2a1.534,1.534,0,0,0,.456,1.134,1.505,1.505,0,0,0,1.1.454,1.551,1.551,0,0,0,1.14-.454,1.489,1.489,0,0,0,.456-1.1,1.636,1.636,0,0,0-.437-1.153,1.459,1.459,0,0,0-1.121-.472,1.551,1.551,0,0,0-1.14.454A1.534,1.534,0,0,0,17.752-24.7Zm-6.726.038a1.636,1.636,0,0,0-.437-1.153,1.459,1.459,0,0,0-1.121-.472,1.551,1.551,0,0,0-1.14.454A1.534,1.534,0,0,0,7.873-24.7a1.552,1.552,0,0,0,.456,1.115,1.475,1.475,0,0,0,1.1.472,1.551,1.551,0,0,0,1.14-.454A1.489,1.489,0,0,0,11.027-24.663Zm4.636,12.284a8.571,8.571,0,0,1,.779-3.534,9.168,9.168,0,0,1,2.147-2.854,10.424,10.424,0,0,1,2.774-1.871,11.194,11.194,0,0,1,3.192-.926,13.144,13.144,0,0,1,4.56.113,11.706,11.706,0,0,1,4.18,1.776,10.462,10.462,0,0,1,2.337,2.192,7.783,7.783,0,0,1,1.387,2.873,7.637,7.637,0,0,1,.133,3.874,9.078,9.078,0,0,1-1.691,3.458,9.31,9.31,0,0,1-.8.907,6.588,6.588,0,0,1-.912.756.334.334,0,0,0-.095.151.343.343,0,0,0,.019.189q.228.6.437,1.247t.4,1.247a.3.3,0,0,1,.057.076.167.167,0,0,1,.019.076.659.659,0,0,0-.038.208.135.135,0,0,1-.076.132q-.038.076-.152.057a.678.678,0,0,1-.19-.057q-.646-.34-1.273-.7t-1.235-.775a1.265,1.265,0,0,0-.57-.208,1.6,1.6,0,0,0-.608.094,11.974,11.974,0,0,1-2.641.6,10.9,10.9,0,0,1-2.717-.038,11.987,11.987,0,0,1-3.439-.869,10.835,10.835,0,0,1-2.983-1.89A9.431,9.431,0,0,1,16.8-8.316a8.78,8.78,0,0,1-1.026-2.74.871.871,0,0,0-.019-.17,1.056,1.056,0,0,1-.019-.208q-.038-.265-.057-.51T15.662-12.379Zm16.149-3.629a1.418,1.418,0,0,0-.4-1.021,1.336,1.336,0,0,0-1.007-.416,1.336,1.336,0,0,0-1.007.416,1.418,1.418,0,0,0-.4,1.021,1.372,1.372,0,0,0,.4.983,1.336,1.336,0,0,0,1.007.416,1.336,1.336,0,0,0,1.007-.416A1.372,1.372,0,0,0,31.811-16.008Zm-7.827-.038a1.322,1.322,0,0,0-.418-1,1.434,1.434,0,0,0-1.026-.4,1.47,1.47,0,0,0-1.007.454,1.293,1.293,0,0,0-.361,1.021,1.28,1.28,0,0,0,.418.964,1.434,1.434,0,0,0,1.026.4,1.293,1.293,0,0,0,.969-.416A1.418,1.418,0,0,0,23.984-16.045Z" transform="translate(0.338 38.105)" fill="#fff"/>
    <rect id="사각형_3891" data-name="사각형 3891" width="40" height="40" transform="translate(0 0.16)" fill="none"/>
  </g>
</svg>
