<svg xmlns="http://www.w3.org/2000/svg" width="40" height="40" viewBox="0 0 40 40">
  <g id="그룹_5354" data-name="그룹 5354" transform="translate(0 -0.16)">
    <path id="패스_11825" data-name="패스 11825" d="M26.434-17.179a1.115,1.115,0,0,0-.133-.543,1,1,0,0,0-.4-.393L16.658-23.84a1.119,1.119,0,0,0-.587-.187,1.323,1.323,0,0,0-.587.15,1.366,1.366,0,0,0-.455.43,1.075,1.075,0,0,0-.152.58v11.413a1.075,1.075,0,0,0,.152.58,1.082,1.082,0,0,0,.455.393,1.676,1.676,0,0,0,.284.112,1.042,1.042,0,0,0,.284.037,1.261,1.261,0,0,0,.3-.037.858.858,0,0,0,.3-.15L25.9-16.206a1,1,0,0,0,.4-.393A1.2,1.2,0,0,0,26.434-17.179Zm9.246,0q0,.861-.019,1.534t-.019,1.16q0,.486-.038,1.085t-.114,1.347q-.076.711-.171,1.385a10.2,10.2,0,0,1-.246,1.235,3.694,3.694,0,0,1-.436,1.2,4.7,4.7,0,0,1-.777,1.01,4.75,4.75,0,0,1-1.061.674,3.947,3.947,0,0,1-1.175.337q-2.008.225-5.04.337T19.5-5.766q-4.054,0-7.086-.112t-5.04-.337A3.947,3.947,0,0,1,6.2-6.551a4.75,4.75,0,0,1-1.061-.674,3.815,3.815,0,0,1-.8-1.01,4.9,4.9,0,0,1-.455-1.2q-.114-.561-.208-1.235T3.51-12.052Q3.434-12.8,3.4-13.4t-.038-1.085q0-.486-.019-1.16T3.32-17.179q0-.861.019-1.516t.019-1.141q0-.486.038-1.085t.114-1.347q.076-.748.171-1.4a10.363,10.363,0,0,1,.246-1.216A3.5,3.5,0,0,1,4.362-26.1a4.915,4.915,0,0,1,.777-.992A4.151,4.151,0,0,1,6.2-27.806a3.947,3.947,0,0,1,1.175-.337q2.008-.187,5.04-.3t7.086-.112q4.054,0,7.086.112t5.04.3a3.947,3.947,0,0,1,1.175.337,4.151,4.151,0,0,1,1.061.711,3.942,3.942,0,0,1,.8.992,4.508,4.508,0,0,1,.455,1.216q.114.561.208,1.216t.171,1.4q.076.748.114,1.347t.038,1.085q0,.486.019,1.141T35.68-17.179Z" transform="translate(0.68 37.555)" fill="#fff"/>
    <rect id="사각형_3888" data-name="사각형 3888" width="40" height="40" transform="translate(0 0.16)" fill="none"/>
  </g>
</svg>
