<svg xmlns="http://www.w3.org/2000/svg" width="40" height="40" viewBox="0 0 40 40">
  <g id="그룹_5359" data-name="그룹 5359" transform="translate(0 -0.16)">
    <path id="패스_11830" data-name="패스 11830" d="M19.5-30.441q3.221,0,4.244.019t2.311.095a9.7,9.7,0,0,1,1.857.208,3.748,3.748,0,0,1,1.137.436,3.5,3.5,0,0,1,.985.455,7.385,7.385,0,0,1,.872.682,4.95,4.95,0,0,1,.682.834,4.288,4.288,0,0,1,.455,1.023q.114.417.3,1.118A9.91,9.91,0,0,1,32.61-23.7q.038,1.25.057,2.292t.019,4.225q0,3.221-.019,4.263t-.057,2.292a8.243,8.243,0,0,1-.171,1.876,4.7,4.7,0,0,1-.4,1.118,4.491,4.491,0,0,1-.493.985q-.3.455-.644.871a4.95,4.95,0,0,1-.834.682,4.288,4.288,0,0,1-1.023.455q-.417.114-1.137.3a10.164,10.164,0,0,1-1.857.265q-1.288.076-2.311.076H15.256q-1.023,0-2.311-.076a8.291,8.291,0,0,1-1.857-.171,4.678,4.678,0,0,1-1.137-.4,5.068,5.068,0,0,1-.985-.474,6.109,6.109,0,0,1-.872-.663,4.95,4.95,0,0,1-.682-.834,4.288,4.288,0,0,1-.455-1.023q-.152-.417-.36-1.118a8.805,8.805,0,0,1-.284-1.876q-.038-1.25-.057-2.292t-.019-4.263q0-3.183.019-4.225T6.314-23.7a11.352,11.352,0,0,1,.246-1.876,4.7,4.7,0,0,1,.4-1.118,3.914,3.914,0,0,1,.493-1q.3-.436.644-.853a4.235,4.235,0,0,1,.834-.72,3.462,3.462,0,0,1,1.023-.417,8.7,8.7,0,0,1,1.137-.4,7.779,7.779,0,0,1,1.857-.246q1.288,0,2.311-.057T19.5-30.441Zm0-2.88H15.2q-1.042,0-2.33.076a13.58,13.58,0,0,0-2.236.227,9.738,9.738,0,0,0-1.705.493q-.8.379-1.535.777a5.484,5.484,0,0,0-1.383,1.08,6.854,6.854,0,0,0-1.1,1.4,14.132,14.132,0,0,0-.758,1.516,12.41,12.41,0,0,0-.474,1.705A15.363,15.363,0,0,0,3.4-23.81q-.038,1.288-.057,2.33t-.019,4.3q0,3.3.019,4.338T3.4-10.548a16.488,16.488,0,0,0,.265,2.236A10.9,10.9,0,0,0,4.154-6.57a11.569,11.569,0,0,0,.758,1.478,9.932,9.932,0,0,0,1.1,1.44,8.276,8.276,0,0,0,1.345,1.1A7.257,7.257,0,0,0,8.928-1.8q.72.227,1.686.436a14.979,14.979,0,0,0,2.255.284q1.288.038,2.33.057T19.5-1q3.259,0,4.3-.019t2.33-.057a19.148,19.148,0,0,0,2.236-.246A8.781,8.781,0,0,0,30.072-1.8q.8-.379,1.5-.8a9.209,9.209,0,0,0,1.421-1.061,7.784,7.784,0,0,0,1.118-1.383,8.213,8.213,0,0,0,.739-1.535,12.409,12.409,0,0,0,.474-1.705,15.473,15.473,0,0,0,.284-2.273q.038-1.25.057-2.292t.019-4.338q0-3.259-.019-4.3T35.6-23.81a16.373,16.373,0,0,0-.265-2.2,10.9,10.9,0,0,0-.493-1.743,12.757,12.757,0,0,0-.758-1.5,8.143,8.143,0,0,0-1.1-1.421,4.82,4.82,0,0,0-1.383-1.1q-.739-.379-1.535-.758-.72-.227-1.686-.455a11.391,11.391,0,0,0-2.255-.265q-1.288-.076-2.33-.076Zm0,7.919a8.108,8.108,0,0,0-3.24.644A8.3,8.3,0,0,0,13.646-23a8.239,8.239,0,0,0-1.762,2.633,8.054,8.054,0,0,0-.644,3.183,8.012,8.012,0,0,0,.644,3.2,8.527,8.527,0,0,0,1.762,2.633A8.142,8.142,0,0,0,16.26-9.563a8.108,8.108,0,0,0,3.24.644,8.108,8.108,0,0,0,3.24-.644,8.3,8.3,0,0,0,2.615-1.762,8.3,8.3,0,0,0,1.762-2.614,8.107,8.107,0,0,0,.644-3.24,8.148,8.148,0,0,0-.644-3.221,8.02,8.02,0,0,0-1.762-2.614,8.461,8.461,0,0,0-2.615-1.743A8.108,8.108,0,0,0,19.5-25.4Zm0,13.64a5.25,5.25,0,0,1-3.827-1.572,5.2,5.2,0,0,1-1.591-3.846,5.218,5.218,0,0,1,1.591-3.827A5.218,5.218,0,0,1,19.5-22.6a5.218,5.218,0,0,1,3.827,1.591,5.218,5.218,0,0,1,1.591,3.827,5.2,5.2,0,0,1-1.591,3.846A5.25,5.25,0,0,1,19.5-11.761ZM30.072-25.818a1.86,1.86,0,0,1-.568,1.364,1.86,1.86,0,0,1-1.364.568,1.86,1.86,0,0,1-1.364-.568,1.86,1.86,0,0,1-.568-1.364,1.86,1.86,0,0,1,.568-1.364,1.86,1.86,0,0,1,1.364-.568,1.86,1.86,0,0,1,1.364.568A1.86,1.86,0,0,1,30.072-25.818Z" transform="translate(0.68 37.48)" fill="#fff"/>
    <rect id="사각형_3893" data-name="사각형 3893" width="40" height="40" transform="translate(0 0.16)" fill="none"/>
  </g>
</svg>
