<svg xmlns="http://www.w3.org/2000/svg" width="40" height="40" viewBox="0 0 40 40">
  <g id="그룹_5358" data-name="그룹 5358" transform="translate(0 -0.16)">
    <path id="패스_11829" data-name="패스 11829" d="M11.328-21.5h5.156v-4.623L16.66-27.9a5.731,5.731,0,0,1,1.934-3.486,6.413,6.413,0,0,1,4.238-1.876,41.633,41.633,0,0,1,5.84.171v5.153H25.313l-.781.076a1.988,1.988,0,0,0-1.289.606,2.2,2.2,0,0,0-.527,1.212q-.059.644-.059.834V-21.5h5.82l-.742,5.721H22.617V-1H16.484V-15.777H11.328Z" transform="translate(0.165 37.303)" fill="#fff"/>
    <rect id="사각형_3892" data-name="사각형 3892" width="40" height="40" transform="translate(0 0.16)" fill="none"/>
  </g>
</svg>
