<svg xmlns="http://www.w3.org/2000/svg" width="40" height="40" viewBox="0 0 40 40">
  <g id="그룹_5356" data-name="그룹 5356" transform="translate(0 -0.16)">
    <path id="패스_11827" data-name="패스 11827" d="M34-2.68H27.543V-13.555a2.694,2.694,0,0,0-1.171-2.19,3.954,3.954,0,0,0-2.454-.906,2.516,2.516,0,0,0-2.039.906,3.309,3.309,0,0,0-.755,2.19V-2.68H14.667V-22.013h6.457v3.247a5.281,5.281,0,0,1,2.53-2.077,7.908,7.908,0,0,1,3.1-.755,6.96,6.96,0,0,1,5.135,2.133A7.01,7.01,0,0,1,34-14.348Zm-22.543,0H5V-22.013h6.457Zm-3.247-29a3.134,3.134,0,0,1,2.3.944,3.134,3.134,0,0,1,.944,2.3,3.09,3.09,0,0,1-.944,2.266,3.134,3.134,0,0,1-2.3.944,3.09,3.09,0,0,1-2.266-.944A3.09,3.09,0,0,1,5-28.432a3.134,3.134,0,0,1,.944-2.3A3.09,3.09,0,0,1,8.21-31.68Z" transform="translate(1 36.68)" fill="#fff"/>
    <rect id="사각형_3890" data-name="사각형 3890" width="40" height="40" transform="translate(0 0.16)" fill="none"/>
  </g>
</svg>
