<svg xmlns="http://www.w3.org/2000/svg" xmlns:xlink="http://www.w3.org/1999/xlink" width="40" height="40" viewBox="0 0 40 40">
  <defs>
    <clipPath id="clip-path">
      <rect id="사각형_10338" data-name="사각형 10338" width="36.246" height="33.299" fill="none"/>
    </clipPath>
  </defs>
  <g id="그룹_60437" data-name="그룹 60437" transform="translate(18700 -16632)">
    <g id="그룹_60434" data-name="그룹 60434" transform="translate(-18698 16635)">
      <path id="패스_59942" data-name="패스 59942" d="M36.166,35.985H38.33l-1.038-3.252Z" transform="translate(-22.884 -20.711)" fill="#fff"/>
      <g id="그룹_60433" data-name="그룹 60433" transform="translate(0 0)">
        <g id="그룹_60432" data-name="그룹 60432" clip-path="url(#clip-path)">
          <path id="패스_59943" data-name="패스 59943" d="M18.123,0C8.114,0,0,6.414,0,14.327c0,5.15,3.438,9.664,8.6,12.19-.379,1.414-1.373,5.127-1.571,5.92-.246.986.36.973.758.709.312-.208,4.966-3.373,6.974-4.739a22.9,22.9,0,0,0,3.364.247c10.009,0,18.123-6.414,18.123-14.327S28.132,0,18.123,0M9.285,18.02c0,.87-1.936.859-1.938-.012.01-1.194,0-6.318,0-6.318H5.48a.9.9,0,0,1,0-1.789s4.367.036,5.673.036a.913.913,0,0,1,0,1.825c-1.231,0-1.856-.005-1.856-.005Zm7.131.22c-.453-1.2-.336-1.25-.336-1.25H12.667L12.293,18.3c-.4.915-2.115.169-1.716-.747.551-1.266,2.208-6.04,2.667-7.051a1.081,1.081,0,0,1,1.047-.56,1.409,1.409,0,0,1,1.228.56c.331.705,2.144,5.687,2.668,7.07.368.969-1.4,1.639-1.772.672m6.921.437c-.877,0-2.854.01-3.746.01s-.741-1.039-.741-1.039-.006-5.229-.01-6.852a.91.91,0,0,1,1.011-.857.909.909,0,0,1,1.009.852c0,1.174-.005,6.011-.005,6.011s1.6.009,2.477.009.881,1.865,0,1.865m6.024-.145L26.9,15.176l-.563.451s0,1.658,0,2.531c0,.752-1.915.754-1.915,0,0-.477.042-6.91.022-7.622-.01-.392.493-.6.985-.6.46,0,.909.177.919.544.026.964,0,2.71,0,2.71s2.777-2.78,3.172-3.172,1.67.866,1.262,1.271c-.7.694-2.471,2.611-2.471,2.611l2.612,3.44c.5.656-1.068,1.84-1.565,1.185" transform="translate(0 0)" fill="#fff"/>
        </g>
      </g>
    </g>
    <rect id="사각형_10339" data-name="사각형 10339" width="40" height="40" transform="translate(-18700 16632)" fill="none"/>
  </g>
</svg>
